# MagicaVoxel @ Ephtracy

# group
o 

# material
mtllib handle1.mtl
usemtl palette

# normals
vn -1 0 0
vn 1 0 0
vn 0 0 1
vn 0 0 -1
vn 0 -1 0
vn 0 1 0

# texcoords
vt 0.552734 0.5
vt 0.857422 0.5

# verts
v -0.2 0 0.1
v -0.2 0 0
v -0.2 0 -0.1
v -0.2 0.1 0.1
v -0.2 0.1 0
v -0.2 0.1 -0.1
v 0.2 0 0.1
v 0.2 0 0
v 0.2 0 -0.1
v 0.2 0.1 0.1
v 0.2 0.1 0
v 0.2 0.1 -0.1
v -0.2 0 0.1
v -0.2 0.1 0.1
v -0.1 0 0.1
v -0.1 0.1 0.1
v 0.1 0 0.1
v 0.1 0.1 0.1
v 0.2 0 0.1
v 0.2 0.1 0.1
v -0.2 0 -0.1
v -0.2 0.1 -0.1
v -0.1 0 -0.1
v -0.1 0.1 -0.1
v 0.1 0 -0.1
v 0.1 0.1 -0.1
v 0.2 0 -0.1
v 0.2 0.1 -0.1
v -0.2 0 0.1
v -0.1 0 0.1
v 0.1 0 0.1
v 0.2 0 0.1
v -0.2 0 0
v -0.1 0 0
v 0.1 0 0
v 0.2 0 0
v -0.2 0 -0.1
v -0.1 0 -0.1
v 0.1 0 -0.1
v 0.2 0 -0.1
v -0.2 0.1 0.1
v -0.1 0.1 0.1
v 0.1 0.1 0.1
v 0.2 0.1 0.1
v -0.2 0.1 0
v -0.1 0.1 0
v 0.1 0.1 0
v 0.2 0.1 0
v -0.2 0.1 -0.1
v -0.1 0.1 -0.1
v 0.1 0.1 -0.1
v 0.2 0.1 -0.1

# faces
f 4/1/1 2/1/1 1/1/1
f 5/2/1 3/2/1 2/2/1
f 5/1/1 2/1/1 4/1/1
f 6/2/1 3/2/1 5/2/1
f 7/1/2 8/1/2 10/1/2
f 8/2/2 9/2/2 11/2/2
f 10/1/2 8/1/2 11/1/2
f 11/2/2 9/2/2 12/2/2
f 15/1/3 14/1/3 13/1/3
f 16/1/3 14/1/3 15/1/3
f 17/2/3 16/2/3 15/2/3
f 18/2/3 16/2/3 17/2/3
f 19/1/3 18/1/3 17/1/3
f 20/1/3 18/1/3 19/1/3
f 21/2/4 22/2/4 23/2/4
f 23/2/4 22/2/4 24/2/4
f 23/1/4 24/1/4 25/1/4
f 25/1/4 24/1/4 26/1/4
f 25/2/4 26/2/4 27/2/4
f 27/2/4 26/2/4 28/2/4
f 33/1/5 30/1/5 29/1/5
f 34/2/5 31/2/5 30/2/5
f 34/1/5 30/1/5 33/1/5
f 35/1/5 32/1/5 31/1/5
f 35/2/5 31/2/5 34/2/5
f 36/1/5 32/1/5 35/1/5
f 37/2/5 34/2/5 33/2/5
f 38/1/5 35/1/5 34/1/5
f 38/2/5 34/2/5 37/2/5
f 39/2/5 36/2/5 35/2/5
f 39/1/5 35/1/5 38/1/5
f 40/2/5 36/2/5 39/2/5
f 41/1/6 42/1/6 45/1/6
f 42/2/6 43/2/6 46/2/6
f 45/1/6 42/1/6 46/1/6
f 43/1/6 44/1/6 47/1/6
f 46/2/6 43/2/6 47/2/6
f 47/1/6 44/1/6 48/1/6
f 45/2/6 46/2/6 49/2/6
f 46/1/6 47/1/6 50/1/6
f 49/2/6 46/2/6 50/2/6
f 47/2/6 48/2/6 51/2/6
f 50/1/6 47/1/6 51/1/6
f 51/2/6 48/2/6 52/2/6
