# MagicaVoxel @ Ephtracy

# group
o 

# material
mtllib pommel1.mtl
usemtl palette

# normals
vn -1 0 0
vn 1 0 0
vn 0 0 1
vn 0 0 -1
vn 0 -1 0
vn 0 1 0

# texcoords
vt 0.552734 0.5
vt 0.861328 0.5

# verts
v -0.1 0 0.2
v -0.1 0 0.1
v -0.1 0 0
v -0.1 0 -0.1
v -0.1 0.1 0.2
v -0.1 0.1 0.1
v -0.1 0.1 0
v -0.1 0.1 -0.1
v -0.1 0.2 0.2
v -0.1 0.2 0.1
v -0.1 0.2 0
v -0.1 0.2 -0.1
v 0.1 0 0.2
v 0.1 0 0.1
v 0.1 0 0
v 0.1 0 -0.1
v 0.1 0.1 0.2
v 0.1 0.1 0.1
v 0.1 0.1 0
v 0.1 0.1 -0.1
v 0.1 0.2 0.2
v 0.1 0.2 0.1
v 0.1 0.2 0
v 0.1 0.2 -0.1
v -0.1 0 0.2
v -0.1 0.1 0.2
v -0.1 0.2 0.2
v 0.1 0 0.2
v 0.1 0.1 0.2
v 0.1 0.2 0.2
v -0.1 0 -0.1
v -0.1 0.1 -0.1
v -0.1 0.2 -0.1
v 0.1 0 -0.1
v 0.1 0.1 -0.1
v 0.1 0.2 -0.1
v -0.1 0 0.2
v 0.1 0 0.2
v -0.1 0 0.1
v 0.1 0 0.1
v -0.1 0 0
v 0.1 0 0
v -0.1 0 -0.1
v 0.1 0 -0.1
v -0.1 0.2 0.2
v 0.1 0.2 0.2
v -0.1 0.2 0.1
v 0.1 0.2 0.1
v -0.1 0.2 0
v 0.1 0.2 0
v -0.1 0.2 -0.1
v 0.1 0.2 -0.1

# faces
f 5/2/1 2/2/1 1/2/1
f 6/1/1 3/1/1 2/1/1
f 6/2/1 2/2/1 5/2/1
f 7/2/1 4/2/1 3/2/1
f 7/1/1 3/1/1 6/1/1
f 8/2/1 4/2/1 7/2/1
f 9/1/1 6/1/1 5/1/1
f 10/2/1 7/2/1 6/2/1
f 10/1/1 6/1/1 9/1/1
f 11/1/1 8/1/1 7/1/1
f 11/2/1 7/2/1 10/2/1
f 12/1/1 8/1/1 11/1/1
f 13/2/2 14/2/2 17/2/2
f 14/1/2 15/1/2 18/1/2
f 17/2/2 14/2/2 18/2/2
f 15/2/2 16/2/2 19/2/2
f 18/1/2 15/1/2 19/1/2
f 19/2/2 16/2/2 20/2/2
f 17/1/2 18/1/2 21/1/2
f 18/2/2 19/2/2 22/2/2
f 21/1/2 18/1/2 22/1/2
f 19/1/2 20/1/2 23/1/2
f 22/2/2 19/2/2 23/2/2
f 23/1/2 20/1/2 24/1/2
f 28/2/3 26/2/3 25/2/3
f 29/1/3 27/1/3 26/1/3
f 29/2/3 26/2/3 28/2/3
f 30/1/3 27/1/3 29/1/3
f 31/2/4 32/2/4 34/2/4
f 32/1/4 33/1/4 35/1/4
f 34/2/4 32/2/4 35/2/4
f 35/1/4 33/1/4 36/1/4
f 39/2/5 38/2/5 37/2/5
f 40/2/5 38/2/5 39/2/5
f 41/1/5 40/1/5 39/1/5
f 42/1/5 40/1/5 41/1/5
f 43/2/5 42/2/5 41/2/5
f 44/2/5 42/2/5 43/2/5
f 45/1/6 46/1/6 47/1/6
f 47/1/6 46/1/6 48/1/6
f 47/2/6 48/2/6 49/2/6
f 49/2/6 48/2/6 50/2/6
f 49/1/6 50/1/6 51/1/6
f 51/1/6 50/1/6 52/1/6
